Coordinates
version=1
nRows=20
nColumns=30
inDegrees=yes

Units are S.I. units (second, meters, Newtons, ...)
Angles are in degrees.

endheader
time	floatyaw	floatroll	floatpitch	floatx	floaty	floatz	pro_sup_l	deviation_l	flexion_l	cmc_flexion_l	cmc_abduction_l	mp_flexion_l	ip_flexion_l	2mcp_flexion_l	2mcp_abduction_l	2pm_flexion_l	2md_flexion_l	3mcp_flexion_l	3mcp_abduction_l	3pm_flexion_l	3md_flexion_l	4mcp_flexion_l	4mcp_abduction_l	4pm_flexion_l	4md_flexion_l	5mcp_flexion_l	5mcp_abduction_l	5pm_flexion_l	5md_flexion_l
-1.495000	-160.147433	-5.066637	-73.570646	0.080750	-0.182212	-0.014368	99.999418	2.764558	0.842486	14.408743	8.967170	-25.495466	-41.306315	28.010854	5.862825	41.538781	28.302622	21.938272	3.868103	42.651041	28.609608	10.882440	-4.226296	51.051867	34.972281	-1.364099	-6.552274	60.875936	40.418138
-1.485000	-160.147433	-5.066637	-73.570646	0.080750	-0.182201	-0.014366	100.004906	2.767215	0.838541	14.392246	9.006200	-25.486824	-41.306220	28.046866	5.864060	41.513373	28.273722	21.969001	3.868560	42.623213	28.588201	10.916729	-4.228557	51.030118	34.959250	-1.343604	-6.544336	60.868609	40.390178
-1.475000	-160.147433	-5.066637	-73.570646	0.080751	-0.182191	-0.014366	100.013096	2.769836	0.835431	14.380230	9.017239	-25.475843	-41.293231	28.074595	5.863724	41.502788	28.257042	21.995320	3.869340	42.596772	28.569274	10.944885	-4.229801	51.012437	34.945824	-1.330554	-6.537260	60.868472	40.375192
-1.465000	-160.147433	-5.066637	-73.570646	0.080753	-0.182185	-0.014367	100.022802	2.773127	0.835290	14.373203	8.998584	-25.468440	-41.272974	28.086862	5.861267	41.510737	28.257172	22.007730	3.870074	42.580373	28.561465	10.957340	-4.230353	51.005020	34.937718	-1.332525	-6.531479	60.876518	40.377711
-1.455000	-160.147433	-5.066637	-73.570646	0.080753	-0.182182	-0.014369	100.030969	2.776666	0.838406	14.369854	8.962394	-25.468855	-41.252253	28.082082	5.857412	41.535868	28.274843	22.001636	3.870541	42.580806	28.570263	10.950536	-4.230951	51.011252	34.939771	-1.351398	-6.526552	60.889966	40.397849
-1.445000	-160.147433	-5.066637	-73.570646	0.080751	-0.182185	-0.014371	100.034441	2.779350	0.843455	14.367559	8.927701	-25.477670	-41.234967	28.064401	5.853918	41.571610	28.307111	21.978541	3.870675	42.600362	28.596299	10.927689	-4.232380	51.030262	34.954157	-1.382813	-6.521384	60.903632	40.431723
-1.435000	-160.147433	-5.066637	-73.570646	0.080747	-0.182190	-0.014373	100.031761	2.780106	0.848596	14.364152	8.910916	-25.492066	-41.220589	28.040957	5.852880	41.608524	28.348914	21.944364	3.870420	42.636510	28.635910	10.896486	-4.234937	51.057199	34.979507	-1.418300	-6.514952	60.912535	40.473325
-1.425000	-160.147433	-5.066637	-73.570646	0.080742	-0.182198	-0.014374	100.023995	2.778525	0.852642	14.359436	8.918942	-25.507647	-41.205987	28.018172	5.855862	41.637918	28.394673	21.906191	3.869580	42.683715	28.683109	10.865135	-4.238081	51.085344	35.011374	-1.449101	-6.507180	60.914538	40.516626
-1.415000	-160.147433	-5.066637	-73.570646	0.080737	-0.182204	-0.014374	100.014329	2.775198	0.855568	14.355152	8.947599	-25.520690	-41.189346	27.999383	5.863156	41.654846	28.439026	21.869493	3.867863	42.735732	28.731516	10.838875	-4.240615	51.109181	35.043875	-1.469855	-6.499386	60.911522	40.556707
-1.405000	-160.147433	-5.066637	-73.570646	0.080734	-0.182207	-0.014374	100.006929	2.771668	0.858206	14.353488	8.984796	-25.529733	-41.173413	27.984784	5.873510	41.659295	28.476957	21.837107	3.865182	42.786811	28.775424	10.818587	-4.241375	51.126734	35.071706	-1.480121	-6.493948	60.908127	40.589570
-1.395000	-160.147433	-5.066637	-73.570646	0.080732	-0.182207	-0.014373	100.005706	2.770034	0.861425	14.355416	9.016219	-25.535770	-41.165537	27.973066	5.884540	41.655468	28.504143	21.810073	3.862004	42.831600	28.810054	10.802040	-4.240011	51.139783	35.091545	-1.482831	-6.493321	60.908657	40.611307
-1.385000	-160.147433	-5.066637	-73.570646	0.080732	-0.182205	-0.014373	100.013177	2.772259	0.865341	14.360069	9.031318	-25.541009	-41.174048	27.963580	5.893733	41.649552	28.517699	21.789330	3.859415	42.864866	28.831631	10.786802	-4.237294	51.151933	35.102351	-1.480860	-6.498851	60.914191	40.617905
-1.375000	-160.147433	-5.066637	-73.570646	0.080733	-0.182200	-0.014372	100.029400	2.779305	0.869114	14.365324	9.027761	-25.546957	-41.202968	27.957875	5.899521	41.646645	28.516827	21.776800	3.858695	42.882311	28.837851	10.772761	-4.234721	51.165917	35.104873	-1.474491	-6.509958	60.922017	40.606591
-1.365000	-160.147433	-5.066637	-73.570646	0.080735	-0.182193	-0.014371	100.051277	2.790511	0.871572	14.368784	9.012814	-25.552992	-41.248158	27.959647	5.901829	41.648037	28.502873	21.774728	3.860614	42.882606	28.828860	10.762396	-4.233631	51.181889	35.101009	-1.461928	-6.524103	60.927776	40.578227
-1.355000	-160.147433	-5.066637	-73.570646	0.080736	-0.182186	-0.014367	100.072871	2.803625	0.872347	14.368370	9.000610	-25.556367	-41.297447	27.972796	5.901831	41.650325	28.478834	21.783517	3.864897	42.869197	28.808065	10.758564	-4.234410	51.197485	35.093351	-1.442479	-6.537633	60.928556	40.538880
-1.345000	-160.147433	-5.066637	-73.570646	0.080737	-0.182178	-0.014361	100.087075	2.815558	0.872692	14.362427	9.005815	-25.553859	-41.335369	27.998655	5.901137	41.647094	28.448476	21.799787	3.870236	42.849962	28.781721	10.761548	-4.236304	51.209160	35.084679	-1.419700	-6.547148	60.924523	40.498659
-1.335000	-160.147433	-5.066637	-73.570646	0.080737	-0.182170	-0.014353	100.088207	2.823557	0.875181	14.349916	9.036339	-25.544314	-41.350539	28.034365	5.900946	41.632538	28.415384	21.816506	3.874873	42.834279	28.756975	10.767858	-4.237983	51.213856	35.077257	-1.401582	-6.550763	60.918137	40.467793
-1.325000	-160.147433	-5.066637	-73.570646	0.080736	-0.182162	-0.014345	100.074531	2.826295	0.882199	14.331094	9.089004	-25.530560	-41.341612	28.073543	5.901645	41.605401	28.382580	21.825623	3.877462	42.829249	28.739385	10.771965	-4.238465	51.210322	35.072252	-1.397031	-6.548705	60.912081	40.452264
-1.315000	-160.147433	-5.066637	-73.570646	0.080733	-0.182155	-0.014338	100.049446	2.824474	0.894135	14.308267	9.150847	-25.519186	-41.318054	28.108730	5.902922	41.571192	28.353042	21.821778	3.877740	42.837323	28.731340	10.769764	-4.237767	51.199745	35.069727	-1.410702	-6.542994	60.907655	40.451797
-1.305000	-160.147433	-5.066637	-73.570646	0.080727	-0.182151	-0.014335	100.020475	2.820598	0.908650	14.285684	9.205599	-25.517823	-41.295052	28.134115	5.904135	41.540894	28.330403	21.805010	3.876593	42.856182	28.731920	10.761219	-4.236796	51.185437	35.069146	-1.439585	-6.536369	60.904516	40.461182
